# xmcd
#
# Track frame offsets: 
#        150
#        13516
#        29082
#        43838
#        55834
#        66651
#        83615
#        97675
#        112122
#        126331
#
# Disc length: 1872 seconds
#
# Revision: 2
# Processed by: cddbd v1.5PL3 Copyright (c) Steve Scherf et al.
# Submitted via: ExactAudioCopy v0.90b4
#
DISCID=87074e0a
DTITLE=Dolly Parton - Here You Come Again
DYEAR=1977
DGENRE=Country
TTITLE0=Here You Come Again
TTITLE1=Baby Come Out Tonight
TTITLE2=It's All Wrong, But It's All Right
TTITLE3=Me And Little Andy
TTITLE4=Lovin' You
TTITLE5=Cowgirl and The Dandy
TTITLE6=Two Doors Down
TTITLE7=God's Coloring Book
TTITLE8=As Soon As I Touched Him
TTITLE9=Sweet Music Man
EXTD=
EXTT0=
EXTT1=
EXTT2=
EXTT3=
EXTT4=
EXTT5=
EXTT6=
EXTT7=
EXTT8=
EXTT9=
PLAYORDER=
